# xmcd
#
# Track frame offsets:
#	150
#	15335
#	29049
#	43329
#	60857
#	75742
#	93813
#	110195
#	125460
#	141301
#	171921
#	187799
#	228198
#	244203
#	262755
#
# Disc length: 3983 seconds
#
# Revision: 1
# Processed by: cddbd v1.5.2PL0 Copyright (c) Steve Scherf et al.
# Submitted via: audiograbber 1.83.01
#
DISCID=bf0f8d0f
DTITLE=F.I.T. - BOX  - System
DYEAR=1900
DGENRE=
TTITLE0=Aquagen - Hard to say i´m sorry
TTITLE1=B3 - I.O.I.O
TTITLE2=BRO´SIS - Do You
TTITLE3=Die Toten Hosen - Steh auf, wenn du am Boden bist
TTITLE4=DJ Bobo - Celebration
TTITLE5=E Nomine - Das Tier in mir
TTITLE6=Mad´Hose - Like A Prayer
TTITLE7=Rocco - Everybody
TTITLE8=ATB - Let u Go (Airplay Mix)
TTITLE9=ATB - Let u Go (Trisco Remix)
TTITLE10=Shaggy - Angel
TTITLE11=Tiga and Zyntheriius - Chris Liebing Mix
TTITLE12=Sylver - In Your Eyes
TTITLE13=Sylver - Skin - radio edit
TTITLE14=Sylver - Skin - original Extended
EXTD=
EXTT0=
EXTT1=
EXTT2=
EXTT3=
EXTT4=
EXTT5=
EXTT6=
EXTT7=
EXTT8=
EXTT9=
EXTT10=
EXTT11=
EXTT12=
EXTT13=
EXTT14=
PLAYORDER=
